<svg width="92" height="18" viewBox="0 0 92 18" fill="none" xmlns="http://www.w3.org/2000/svg">
<path d="M3.674 17.228C5.412 17.228 6.886 16.458 7.436 15.226L7.656 16.964H9.416V10.21C9.416 7.306 7.612 5.898 4.95 5.898C2.178 5.898 0.33 7.372 0.33 9.616H2.134C2.134 8.318 3.124 7.548 4.862 7.548C6.314 7.548 7.392 8.186 7.392 9.99V10.298L4.004 10.562C1.474 10.76 0 11.992 0 13.972C0 15.93 1.364 17.228 3.674 17.228ZM4.268 15.622C2.926 15.622 2.09 15.05 2.09 13.906C2.09 12.85 2.838 12.146 4.664 11.97L7.414 11.75V12.322C7.414 14.346 6.226 15.622 4.268 15.622Z" fill="#191919"/>
<path d="M19.44 6.118C19.022 6.03 18.714 5.986 18.34 5.986C16.866 5.986 15.788 6.734 15.348 7.856L15.216 6.228H13.28V16.964H15.348V11.266C15.348 9.198 16.558 8.01 18.516 8.01H19.44V6.118Z" fill="#191919"/>
<path d="M24.4916 16.964V13.906L26.3176 11.992L29.4636 16.964H31.8396L27.7476 10.496L31.8616 6.206H29.2656L24.4916 11.266V0.772003H22.4236V16.964H24.4916Z" fill="#191919"/>
<path d="M35.5634 3.654C36.3114 3.654 36.9274 3.038 36.9274 2.29C36.9274 1.52 36.3114 0.926004 35.5634 0.926004C34.8154 0.926004 34.1994 1.52 34.1994 2.29C34.1994 3.038 34.8154 3.654 35.5634 3.654ZM34.5514 16.964H36.6194V6.206H34.5514V16.964Z" fill="#191919"/>
<path d="M43.6578 16.964V7.944H45.7698V6.206H43.6578V2.84H41.5898V6.206H39.4778V7.944H41.5898V16.964H43.6578Z" fill="#191919"/>
<path d="M53.1602 17.228C55.8222 17.228 57.6262 15.93 58.1542 13.62H56.2182C55.8662 14.852 54.8102 15.512 53.2042 15.512C51.1582 15.512 49.9702 14.258 49.8162 11.992L58.1322 11.97V11.2C58.1322 8.01 56.1302 5.898 53.0722 5.898C49.9482 5.898 47.8142 8.23 47.8142 11.596C47.8142 14.94 49.9922 17.228 53.1602 17.228ZM53.0722 7.636C54.8982 7.636 56.0642 8.82401 56.0642 10.606H49.8602C50.1242 8.714 51.2682 7.636 53.0722 7.636Z" fill="#191919"/>
<path d="M60.7381 11.596C60.7381 14.984 62.8281 17.228 65.9961 17.228C68.5921 17.228 70.5941 15.666 71.0121 13.334H68.9441C68.5701 14.61 67.4701 15.38 65.9961 15.38C64.0381 15.38 62.7841 13.884 62.7841 11.574C62.7841 9.242 64.1261 7.746 66.0841 7.746C67.4701 7.746 68.5701 8.472 68.9221 9.836H70.9901C70.6161 7.438 68.7241 5.898 66.0181 5.898C62.8721 5.898 60.7381 8.23 60.7381 11.596Z" fill="#191919"/>
<path d="M77.23 16.964V7.944H79.342V6.206H77.23V2.84H75.162V6.206H73.05V7.944H75.162V16.964H77.23Z" fill="#191919"/>
<path d="M86.8958 9.792C89.4698 9.792 91.4058 7.856 91.4058 5.282C91.4058 2.708 89.4698 0.772003 86.8958 0.772003C84.3218 0.772003 82.3418 2.73 82.3418 5.282C82.3418 7.834 84.2998 9.792 86.8958 9.792ZM86.8958 9.044C84.7398 9.044 83.1558 7.438 83.1558 5.282C83.1558 3.126 84.7398 1.52 86.8958 1.52C89.0298 1.52 90.6138 3.126 90.6138 5.282C90.6138 7.438 89.0298 9.044 86.8958 9.044ZM85.9278 7.746V5.898H87.1378L88.1058 7.746H89.0078L87.8858 5.678C88.5678 5.436 88.9418 4.886 88.9418 4.226C88.9418 3.258 88.1938 2.686 87.0938 2.686H85.1138V7.746H85.9278ZM88.0618 4.27C88.0618 4.82 87.6878 5.128 87.0718 5.128H85.9278V3.456H87.0718C87.6878 3.456 88.0618 3.72 88.0618 4.27Z" fill="#191919"/>
</svg>
