<svg width="153" height="19" viewBox="0 0 153 19" fill="none" xmlns="http://www.w3.org/2000/svg">
<path d="M76.2789 16.374H71.1589V2.68599H76.2789V16.374ZM71.6589 15.874H75.7789V3.18599H71.6589V15.874ZM83.4029 16.374H78.3859V2.68599H88.8679C90.3695 2.56439 91.8649 2.98596 93.0819 3.87399C93.6058 4.3533 94.0119 4.94718 94.2684 5.60928C94.525 6.27139 94.6251 6.98382 94.5609 7.69099C94.6357 8.91296 94.2468 10.1182 93.4719 11.066C92.5549 12.118 91.0289 12.66 88.9369 12.679C88.4099 12.693 84.4609 12.679 83.4059 12.679L83.4029 16.374ZM78.8829 15.874H82.9029V12.174H83.1539C83.2049 12.174 88.3319 12.19 88.9249 12.174C90.8739 12.157 92.2749 11.674 93.0939 10.731C93.7837 9.87344 94.1263 8.78814 94.0539 7.68999C94.1154 7.05636 94.0301 6.41708 93.8047 5.82173C93.5792 5.22638 93.2197 4.69096 92.7539 4.25699C91.6255 3.44709 90.2449 3.06692 88.8609 3.18499H78.8859L78.8829 15.874ZM87.8059 9.60399H82.8689V5.87799H87.8389C88.1912 5.82931 88.5501 5.87043 88.8822 5.99752C89.2144 6.12462 89.5091 6.33357 89.7389 6.60499C89.9474 6.95193 90.0457 7.35397 90.0209 7.75799C90.0396 8.13309 89.9586 8.50646 89.7859 8.83999C89.5488 9.12587 89.2421 9.34594 88.8953 9.47904C88.5486 9.61214 88.1734 9.65379 87.8059 9.59999V9.60399ZM83.3689 9.10399H87.8059C88.6259 9.10399 89.1339 8.93299 89.3589 8.58099C89.4828 8.32514 89.5389 8.04175 89.5219 7.75799C89.5438 7.46005 89.4792 7.16213 89.3359 6.89999L89.3299 6.89099C89.0919 6.54099 88.6189 6.37799 87.8389 6.37799H83.3689V9.10399ZM103.686 16.576C99.1959 16.576 96.5159 15.461 95.4949 13.168C95.3278 12.7251 95.2144 12.2638 95.1569 11.794L95.1129 11.506H100.455L100.49 11.716C100.531 11.9292 100.622 12.1299 100.754 12.302C100.965 12.557 101.669 12.985 104.005 12.985C106.813 12.985 106.813 12.492 106.813 12.227C106.813 11.78 106.488 11.627 104.198 11.383L103.763 11.342C102.901 11.261 101.811 11.158 101.313 11.115C97.1129 10.735 95.2379 9.42999 95.2379 6.88499C95.2379 4.21199 98.4289 2.48499 103.368 2.48499C107.397 2.48499 109.993 3.54699 111.082 5.64399C111.34 6.13177 111.514 6.65998 111.595 7.20599L111.63 7.48699H106.282L106.26 7.26099C106.239 7.08437 106.164 6.91868 106.044 6.78699C105.844 6.51899 105.212 6.07599 103.25 6.07599C100.841 6.07599 100.509 6.38399 100.509 6.71599C100.509 7.15899 101.27 7.31599 103.709 7.57699C104.726 7.65999 106.361 7.82799 106.921 7.89599C110.442 8.27799 112.013 9.55099 112.013 12.025C112.014 14.1 110.569 16.576 103.686 16.576ZM95.6969 12.006C95.747 12.3358 95.8332 12.659 95.9539 12.97C96.8839 15.059 99.4139 16.076 103.686 16.076C107.258 16.076 111.517 15.376 111.517 12.025C111.517 9.83199 110.127 8.74599 106.868 8.39299C106.308 8.32499 104.683 8.15799 103.668 8.07399C101.068 7.79199 100.011 7.64199 100.011 6.71599C100.011 5.75799 101.15 5.57599 103.252 5.57599C104.913 5.57599 105.986 5.87599 106.441 6.48099C106.565 6.63004 106.659 6.80194 106.717 6.98699H111.051C110.964 6.60023 110.826 6.22668 110.641 5.87599C109.641 3.95699 107.198 2.98499 103.37 2.98499C98.7349 2.98499 95.7399 4.51599 95.7399 6.88499C95.7399 9.14499 97.4209 10.261 101.359 10.617C101.859 10.66 102.948 10.763 103.812 10.845L104.25 10.886C106.377 11.11 107.315 11.25 107.315 12.227C107.315 13.279 106.102 13.485 104.007 13.485C102.069 13.485 100.845 13.194 100.372 12.621C100.226 12.4383 100.116 12.2296 100.048 12.006H95.6969ZM121.513 16.559C116.293 16.559 113.413 14.448 113.413 10.614V2.68599H118.465V10.614C118.465 11.929 119.642 12.683 121.693 12.683C123.653 12.683 124.87 11.896 124.87 10.631V2.68599H129.87V11.034C129.875 14.545 126.826 16.559 121.51 16.559H121.513ZM113.913 3.18599V10.614C113.913 15.352 118.671 16.059 121.513 16.059C124.451 16.059 129.378 15.406 129.378 11.034V3.18599H125.378V10.631C125.378 12.181 123.934 13.183 121.701 13.183C119.367 13.183 117.973 12.223 117.973 10.614V3.18599H113.913ZM151.058 16.374H146.29V10.194L143.586 16.374H139.427L136.751 10.206V16.374H131.966V2.68599H138.26L141.53 10.233L144.958 2.68599H151.064L151.058 16.374ZM146.79 15.874H150.558V3.18599H145.276L141.514 11.465L137.928 3.18599H132.462V15.874H136.247V7.79999L139.747 15.877H143.247L146.784 7.81199L146.79 15.874ZM6.63994 2.93599H2.08594V16.124H14.6699V12.613H6.63994V2.93599ZM23.8619 2.63599C18.0489 2.63599 14.9919 5.39099 14.9919 9.43599C14.9919 14.006 18.2009 16.324 23.8619 16.324C30.0939 16.324 32.7149 13.636 32.7149 9.43599C32.7149 5.17099 29.7579 2.63399 23.8619 2.63399V2.63599ZM23.8449 6.06299C24.2406 6.06113 24.6361 6.08417 25.0289 6.13199L19.9379 11.223C19.697 10.6781 19.5795 10.0866 19.5939 9.49099C19.5939 7.42199 20.6359 6.06099 23.8449 6.06099V6.06299ZM23.8619 12.951C23.4806 12.9527 23.0996 12.9313 22.7209 12.887L27.8209 7.78699C28.0528 8.32289 28.1638 8.90332 28.1459 9.48699C28.1459 11.5 27.1859 12.949 23.8619 12.949V12.951ZM41.7379 11.151H46.4249C46.3559 11.4763 46.2121 11.781 46.0049 12.041C45.0332 12.8326 43.7931 13.2178 42.5439 13.116C41.9151 13.1833 41.2793 13.1146 40.6794 12.9146C40.0795 12.7147 39.5295 12.3881 39.0669 11.957C38.593 11.2619 38.3679 10.4271 38.4279 9.58799C38.3512 8.70873 38.596 7.83151 39.1169 7.11899C39.7719 6.37899 40.8809 6.05999 42.5109 6.05999C43.548 5.97412 44.5838 6.24047 45.4509 6.81599C45.7242 7.03307 45.9285 7.3249 46.0389 7.65599H50.3859C50.3543 7.11046 50.2231 6.57532 49.9989 6.07699C48.9579 3.95999 46.5379 2.69999 42.4229 2.69999C38.8439 2.69999 36.4419 3.79199 35.1149 5.43899C34.2385 6.62835 33.7886 8.07843 33.8379 9.55499C33.7812 11.065 34.2195 12.5521 35.0859 13.79C36.3969 15.49 38.7319 16.326 41.5379 16.326C43.4034 16.4561 45.2562 15.9336 46.7789 14.848L46.8969 16.124H50.5079V8.31199H41.7379V11.151ZM60.7569 2.63299C54.9449 2.63299 51.8869 5.38799 51.8869 9.43299C51.8869 14.003 55.0949 16.321 60.7569 16.321C66.9899 16.321 69.6109 13.633 69.6109 9.43299C69.6109 5.17099 66.6539 2.63399 60.7569 2.63399V2.63299ZM60.7409 6.05999C61.1262 6.05885 61.5112 6.08089 61.8939 6.12599L56.8229 11.2C56.5895 10.6611 56.4759 10.0781 56.4899 9.49099C56.4859 7.42199 57.5319 6.06099 60.7409 6.06099V6.05999ZM60.7569 12.948C60.3655 12.9497 59.9744 12.9269 59.5859 12.88L64.7029 7.76199C64.9436 8.30502 65.0588 8.89531 65.0399 9.48899C65.0419 11.5 64.0859 12.949 60.7569 12.949V12.948Z" fill="#191919"/>
</svg>
