<svg width="40" height="40" viewBox="0 0 40 40" fill="none" xmlns="http://www.w3.org/2000/svg">
<path d="M7.63833 28.8686C5.92167 27.0452 5 25.0002 5 21.6852C5 15.8519 9.095 10.6236 15.05 8.03857L16.5383 10.3352C10.98 13.3419 9.89333 17.2436 9.46 19.7036C10.355 19.2402 11.5267 19.0786 12.675 19.1852C15.6817 19.4636 18.0517 21.9319 18.0517 25.0002C18.0517 26.5473 17.4371 28.0311 16.3431 29.125C15.2492 30.219 13.7654 30.8336 12.2183 30.8336C11.3628 30.8261 10.5172 30.6485 9.73094 30.3112C8.94465 29.9738 8.23331 29.4834 7.63833 28.8686ZM24.305 28.8686C22.5883 27.0452 21.6667 25.0002 21.6667 21.6852C21.6667 15.8519 25.7617 10.6236 31.7167 8.03857L33.205 10.3352C27.6467 13.3419 26.56 17.2436 26.1267 19.7036C27.0217 19.2402 28.1933 19.0786 29.3417 19.1852C32.3483 19.4636 34.7183 21.9319 34.7183 25.0002C34.7183 26.5473 34.1038 28.0311 33.0098 29.125C31.9158 30.219 30.4321 30.8336 28.885 30.8336C28.0294 30.8261 27.1839 30.6485 26.3976 30.3112C25.6113 29.9738 24.9 29.4834 24.305 28.8686Z" fill="black"/>
</svg>
